# xmcd
#
# Track frame offsets: 
#        150
#        10798
#        21438
#        33250
#        46813
#        60100
#        70150
#        83550
#        92900
#        104163
#        123325
#        133938
#        145050
#        159888
#        176163
#
# Disc length: 2579 seconds
#
# Revision: 1
# Processed by: cddbd v1.5.1PL0 Copyright (c) Steve Scherf et al.
# Submitted via: ExactAudioCopy v0.95b1
#
DISCID=c00a110f
DTITLE=Various Artist - Roots of Country - Disk 4
DYEAR=1900
DGENRE=Country
TTITLE0=Buck Owens - Act Naturally
TTITLE1=The Statler Brothers - Flowers on the Wall
TTITLE2=Osborne Brothers - Rocky Top
TTITLE3=Loretta Lynn - Coal Miner's Daughter
TTITLE4=Glen Campbell - Gentle On My Mind
TTITLE5=Merle Haggard - Mama Tried
TTITLE6=Tammy Wynette - D-I-V-O-R-C-E
TTITLE7=Charlie Pride - Kiss An Angel Good Mornin'
TTITLE8=Dolly Parton - Dumb Blonde
TTITLE9=Kris Kristofferson/ Me and Bobby McGee
TTITLE10=Waylon Jennings/ Only Daddy That'll Walk the Line
TTITLE11=Willie Nelson - On the Road Again
TTITLE12=Rosanne Cash - Seven Year Ache
TTITLE13=Charlie Daniels Band - The Devil Went Down to Georgia
TTITLE14=Marty Stuart - Honky Tonker
EXTD=ID3G: 2
EXTT0=
EXTT1=
EXTT2=
EXTT3=
EXTT4=
EXTT5=
EXTT6=
EXTT7=
EXTT8=
EXTT9=
EXTT10=
EXTT11=
EXTT12=
EXTT13=
EXTT14=
PLAYORDER=
